# xmcd
#
# Track frame offsets:
# 150
# 15608
# 31891
# 44033
# 61539
# 75159
# 91737
# 106371
# 119749
# 136309
# 149245
# 166440
# 181375
# 195743
#
# Disc length: 2833 seconds
#
#
# Revision: 0
# Processed by: cddbd v1.5.2PL0 Copyright (c) Steve Scherf et al.
# Submitted via: FreeRIP 2.945 
#
DISCID=bd0b0f0e
DTITLE=Adalberto and Adriano - Aceito seu Coração
DYEAR=2004
DGENRE=Country
TTITLE0=Oi!
TTITLE1=Eu quero voltar para você
TTITLE2=Castiga o fole
TTITLE3=Aceito seu coração
TTITLE4=O homem e a natureza
TTITLE5=Eu quero saber
TTITLE6=Traição
TTITLE7=Capim mexeu, pau na preá!
TTITLE8=Impossível te esquecer
TTITLE9=Deu tudo errado
TTITLE10=Tem amor
TTITLE11=Quando a noite chega
TTITLE12=Ripa na chulipa
TTITLE13=Preciso ir
EXTD=
EXTT0=
EXTT1=
EXTT2=
EXTT3=
EXTT4=
EXTT5=
EXTT6=
EXTT7=
EXTT8=
EXTT9=
EXTT10=
EXTT11=
EXTT12=
EXTT13=
PLAYORDER=
